<?xml version="1.0" encoding="UTF-8" standalone="no"?>
<!-- Created with Inkscape (http://www.inkscape.org/) -->

<svg
   xmlns:dc="http://purl.org/dc/elements/1.1/"
   xmlns:cc="http://creativecommons.org/ns#"
   xmlns:rdf="http://www.w3.org/1999/02/22-rdf-syntax-ns#"
   xmlns:svg="http://www.w3.org/2000/svg"
   xmlns="http://www.w3.org/2000/svg"
   xmlns:xlink="http://www.w3.org/1999/xlink"
   xmlns:sodipodi="http://sodipodi.sourceforge.net/DTD/sodipodi-0.dtd"
   xmlns:inkscape="http://www.inkscape.org/namespaces/inkscape"
   width="210mm"
   height="297mm"
   viewBox="0 0 210 297"
   version="1.1"
   id="svg8"
   inkscape:version="0.92.2 (5c3e80d, 2017-08-06)"
   sodipodi:docname="ipcs_logo.svg">
  <defs
     id="defs2">
    <g
       id="a">
      <path
         id="path4522"
         d=" M -41.55 -16.5 Q -41.55 -16.4 -41.4 -13.8 -41.1 -12.05 -40.35 -11.55 -40.75 -11.05 -41.1 -10.55 -43.4 -10.45 -44.7 -8.2 -45.9 -6.1 -45.9 -3.05 -45.9 -3 -45.2 -0.2 -44.35 2.35 -43.45 2.6 -42.95 4.9 -41.85 7.25 -41.8 7.25 -38.85 10.8 -35.1 13.95 -31.4 12.1 -29.75 11.3 -28.4 10.15 -29.65 12.7 -32.15 16.8 -36.15 24.4 -41.35 29.4 -45.75 32.85 -45.75 32.9 -45.75 33.35 -45.65 33.6 -45.4 34.2 -44.65 34.2 -38.55 34.2 -30.4 20.45 -27.7 15.95 -25.35 10.8 -24.25 8.35 -23.75 7.15 -23.55 7.8 -23.25 8.6 -21.65 13.2 -21.65 14.95 -21.65 16.5 -23.25 20.1 -24.85 23.65 -26.2 25.25 -27.6 26.8 -31.5 31.05 L -36.3 34.5 Q -36.3 35.1 -36.15 35.05 -35.4 35.2 -34.9 35.2 -29.85 35.2 -24.35 28.7 -18.65 21.9 -18.65 14.85 -18.65 12.5 -19.65 9.95 -14.7 15 -11.95 18.45 -9.2 21.85 -4.05 23.4 1.1 24.9 2.8 26.6 3.5 27.25 4.35 28.75 5.2 30.25 4.5 33.6 3.75 36.95 6.1 36.95 8.4 36.95 8.8 35.95 9.1 35.25 9.1 34.45 9.1 23.8 -0.9 20.8 -5.55 19.45 -9.25 15.4 -9.15 15.45 -9.05 15.55 -7.75 16.55 -6.6 17.05 -5.65 18.05 -4.15 18.05 -0.6 18.05 0.65 15.95 0.8 15.65 1.05 15.2 4.6 18.25 8.85 20.8 9.65 21.3 10.45 21.75 10.85 24.75 10.9 25.2 10.9 25.55 10.7 27.3 10.5 29.2 10.85 30.6 11.95 34.95 18 34.95 19.8 34.95 21 34.45 22.05 33.95 22.05 33.45 22.05 32.55 19.85 32.1 17.75 31.7 15.55 32.05 15.15 28.35 14.45 23.75 19.25 25.9 23.85 26.55 25.6 33.45 25.7 34.9 L 27.95 35.25 Q 30.95 35.75 35.9 35 40.8 34.25 42.6 33.45 42.4 33.35 40.6 32.75 38.75 32.2 38.6 32.2 34.6 31.8 33.95 31.8 31.25 31.8 29.7 32 28.05 29.5 27.65 26.85 31 26.85 34.2 26.05 38.45 25 42.5 21.6 46.25 18.5 45.95 17.3 45.4 15.1 34.85 9.3 27.8 5.65 25.25 4.35 22.85 -20.85 25.15 -27.45 27.4 -34.05 24.75 -35.65 22.05 -37.35 19.4 -33.75 16.7 -30.2 15.75 -28.8 14.9 -27.7 13.8 -26 12.9 -24.45 12.1 -23.05 11.95 -26.7 12 -28.8 12.1 -32.4 11.4 -33.85 11.4 -37.35 8.1 -34.5 6.7 -33.3 5 -31.15 4.55 -30.9 4.1 -30.6 -1.8 -26.9 -6.7 -26.9 -9.75 -26.9 -13.85 -27.4 -17.95 -27.9 -21.55 -27.9 -30.35 -27.9 -35.6 -21.4 -38.8 -17.45 -39.3 -14.25 -39.8 -15.6 -39.8 -16.55 -39.8 -19.75 -36.85 -23.45 -33.2 -27.95 -27.9 -28.3 -16.95 -29 -11.55 -30.2 -2.15 -32.25 -2.15 -36.4 -2.15 -36.75 -2.2 -36.85 -2.3 -36.85 -2.4 -36.95 -4.45 -35.65 -6.35 -34.45 -10.1 -32.15 -12.9 -31.9 -19.5 -31.3 -24.25 -30.55 -28.35 -29.8 -30.3 -29.55 -35.65 -28.9 -38.9 -24.1 -41.55 -20.25 -41.55 -16.5 M -43.6 -4.5 Q -43.9 -2.75 -43.85 -0.95 -44.5 -2.35 -44.5 -3.25 -44.5 -5.55 -43.75 -6.75 -43.35 -7.4 -42.45 -8.2 -43.2 -6.5 -43.6 -4.5 M -13.55 -25.75 Q -8.95 -25.3 -8.4 -25.3 -3.15 -25.3 2.3 -27.6 1.6 -26.7 0.9 -25.65 -5.05 -16.9 -7.6 -11.2 -7.7 -11.25 -7.75 -11.3 -15.2 -16.7 -19.6 -14.85 -24.1 -12.9 -24.9 -11.1 -25.15 -10.75 -25.2 -10.45 -27.8 -14.35 -31.35 -15.2 -34.05 -15.9 -36.6 -14.65 -35.65 -17.1 -34.7 -18.75 -30.3 -26.2 -21.4 -26.2 -18.15 -26.2 -13.55 -25.75 M -34.1 -10.7 Q -32 -10.25 -30.65 -8.65 -29.35 -7.1 -29.15 -5.95 -28.95 -4.8 -28.7 -3.4 -28.5 -1.45 -29.25 -0.1 -29.9 1.1 -31.6 2.45 -35.45 5.3 -38 3.95 -39.3 3.35 -40.05 1.8 -41.7 -1.65 -41 -4.85 -40.45 -7.8 -38.3 -9.5 -36.2 -11.2 -34.1 -10.7 M 12.85 -0.8 L 12.7 -6.65 Q 15.05 -10.25 19.2 -16.4 19.65 -10.85 20.75 2.25 17.7 1 12.85 -0.8 M 4.9 -16.6 Q 6.15 -19.45 7.15 -21.8 L 7.3 -14.95 Q 4.3 -10.5 2.15 -6.4 1.7 -5.8 1.3 -5.2 0.35 -5.6 -0.45 -6 1.95 -9.95 4.9 -16.6 M -37.85 -8.3 Q -39.4 -6.85 -39.95 -4.55 -40.5 -2.05 -39.5 0 -37.65 3.75 -33.85 1.9 -30.75 0.35 -30.35 -2.4 -30.15 -4.15 -30.8 -5.55 -32.3 -8.65 -34.4 -9.2 -36.2 -9.8 -37.85 -8.3 M -35.8 -4.6 Q -36.5 -5.05 -36.75 -5.55 -37.65 -7.35 -35.75 -8.05 -33.9 -8.75 -32.95 -6.9 -32.85 -6.55 -32.85 -5.95 -33 -4.95 -33.95 -4.5 -34.85 -4.05 -35.8 -4.6 Z"
         stroke="none"
         fill="#000000" />
    </g>
  </defs>
  <sodipodi:namedview
     id="base"
     pagecolor="#ffffff"
     bordercolor="#666666"
     borderopacity="1.0"
     inkscape:pageopacity="0.0"
     inkscape:pageshadow="2"
     inkscape:zoom="0.24389192"
     inkscape:cx="-216.726"
     inkscape:cy="-1326.2539"
     inkscape:document-units="mm"
     inkscape:current-layer="layer1"
     showgrid="false"
     inkscape:window-width="1920"
     inkscape:window-height="1025"
     inkscape:window-x="0"
     inkscape:window-y="27"
     inkscape:window-maximized="1" />
  <metadata
     id="metadata5">
    <rdf:RDF>
      <cc:Work
         rdf:about="">
        <dc:format>image/svg+xml</dc:format>
        <dc:type
           rdf:resource="http://purl.org/dc/dcmitype/StillImage" />
        <dc:title></dc:title>
      </cc:Work>
    </rdf:RDF>
  </metadata>
  <g
     inkscape:label="Layer 1"
     inkscape:groupmode="layer"
     id="layer1">
    <rect
       style="opacity:1;fill:#ffffff;fill-opacity:1;stroke:none;stroke-width:0.47206211;stroke-miterlimit:4;stroke-dasharray:none;stroke-opacity:1"
       id="rect4634"
       width="439.38751"
       height="409.01205"
       x="-622.71124"
       y="575.78949"
       ry="13.697716"
       inkscape:export-xdpi="96"
       inkscape:export-ydpi="96" />
    <ellipse
       style="opacity:1;fill:#424242;fill-opacity:1;stroke:none;stroke-width:1.25663722;stroke-miterlimit:4;stroke-dasharray:none;stroke-opacity:1"
       id="path3699"
       cx="-372.01147"
       cy="307.05359"
       rx="100.69553"
       ry="107.34525" />
    <ellipse
       ry="114.90477"
       rx="107.78676"
       cy="311.58926"
       cx="-159.58885"
       id="ellipse3701"
       style="opacity:1;fill:#c62828;fill-opacity:1;stroke:none;stroke-width:1.34513271;stroke-miterlimit:4;stroke-dasharray:none;stroke-opacity:1" />
    <g
       id="g4650"
       transform="translate(-16.85015,7.7345301)">
      <g
         transform="matrix(1.3629809,0,0,1.3629809,102.83637,-262.83574)"
         id="g4632">
        <g
           id="g4563"
           transform="matrix(0.8253923,0,0,0.82948708,-123.3564,151.23225)">
          <g
             style="fill:#c62828;fill-opacity:1"
             id="g4531"
             transform="matrix(0.74567674,0,0,0.74567674,-402.16798,711.02109)">
            <g
               style="fill:#c62828;fill-opacity:1"
               id="g4529">
              <use
                 style="fill:#c62828;fill-opacity:1"
                 id="use4527"
                 xlink:href="#a"
                 x="0"
                 y="0"
                 width="100%"
                 height="100%" />
            </g>
          </g>
          <path
             inkscape:connector-curvature="0"
             id="path4557"
             d="m -398.77252,735.85296 c -0.26961,-0.26961 -0.2974,-1.25846 -0.0617,-2.19744 0.69117,-2.75389 -1.04815,-4.88397 -5.62272,-6.88599 -2.51759,-1.10181 -6.01432,-3.57439 -8.48407,-5.99919 l -4.20135,-4.12486 v 3.67573 c 0,4.38049 -2.77651,9.66637 -6.61556,12.59456 -4.16941,3.18016 -4.81404,2.15411 -1.05254,-1.67529 4.92376,-5.01261 6.79429,-9.45785 5.73532,-13.62985 -0.44535,-1.75456 -1.02349,-3.16688 -1.28474,-3.13854 -0.26125,0.0283 -1.81607,2.78569 -3.45514,6.12746 -3.30049,6.72915 -8.84629,13.47576 -11.07723,13.47576 -1.12374,0 -0.75732,-0.6204 1.65206,-2.79712 2.99297,-2.70397 10.11026,-13.73503 9.35146,-14.49383 -0.20524,-0.20523 -0.77571,0.0294 -1.2677,0.52142 -1.44388,1.44388 -4.74017,1.03005 -6.42268,-0.80637 -1.45164,-1.58438 -4.75282,-7.50144 -4.75282,-8.51895 0,-0.249 0.34018,-0.24246 0.75597,0.0145 0.42757,0.26424 0.80597,-0.45527 0.87109,-1.65629 0.0633,-1.1679 0.14981,-2.60588 0.19219,-3.19548 0.0424,-0.5896 0.49088,-1.20994 0.99671,-1.37856 0.61357,-0.20452 0.80971,-1.48304 0.58936,-3.84167 -0.23175,-2.48028 -0.16684,-2.86022 0.21744,-1.27333 l 0.54774,2.26182 1.72524,-2.92407 c 0.94888,-1.60822 1.91619,-2.73307 2.14961,-2.49968 0.23339,0.23339 -0.12063,1.20242 -0.78669,2.15336 -1.68169,2.40097 -1.56951,2.6021 1.45161,2.6021 1.70601,0 3.23916,0.57653 4.26733,1.6047 l 1.6047,1.6047 2.12294,-1.56954 c 2.56312,-1.89502 5.86761,-1.91884 9.09092,-0.0655 1.37875,0.79275 2.50762,1.0541 2.66878,0.61791 0.15361,-0.41577 1.78167,-3.13216 3.61791,-6.03647 2.33532,-3.69366 3.07091,-5.45076 2.44782,-5.84705 -0.66813,-0.42492 -0.65514,-0.56941 0.052,-0.57812 0.5185,-0.006 2.29108,-1.22967 3.93901,-2.71849 2.9641,-2.6779 3.00051,-2.68803 3.3936,-0.94495 0.21852,0.96911 0.48704,3.24522 0.59669,5.05801 l 0.19936,3.29602 3.02382,-4.36737 c 3.53314,-5.10299 5.20313,-6.39533 6.53862,-5.05984 0.70575,0.70575 0.71043,1.77779 0.0209,4.76538 -0.96184,4.16693 -1.16356,14.58029 -0.40479,20.8965 l 0.47189,3.9279 5.3802,2.80088 c 6.99037,3.63913 9.53791,5.44923 9.53791,6.77696 0,1.75448 -5.90228,5.50849 -9.5118,6.04975 -3.30732,0.49596 -3.83852,1.17258 -2.88052,3.66908 0.33084,0.86217 1.47825,1.19576 4.11311,1.19576 4.86688,0 5.41078,1.19338 0.79317,1.74024 -5.45928,0.64659 -6.68862,0.10039 -7.24977,-3.22114 -0.42662,-2.525 -0.82381,-2.94751 -3.53441,-3.75962 -1.6796,-0.50321 -3.44647,-1.06561 -3.92637,-1.24979 -0.60301,-0.23138 -0.78872,0.71938 -0.60116,3.07774 0.25445,3.19902 0.40857,3.41257 2.46317,3.41257 1.20544,0 2.19173,0.34017 2.19173,0.75594 0,0.98946 -3.4752,0.97216 -5.34136,-0.0266 -1.06024,-0.56742 -1.46222,-1.58948 -1.46222,-3.71795 0,-4.171 -0.51347,-5.08744 -4.31673,-7.70414 -2.47578,-1.70339 -3.60317,-2.10047 -4.21799,-1.48563 -1.12741,1.12739 -4.53056,1.06497 -5.77167,-0.10586 -0.8082,-0.76245 -0.93935,-0.72597 -0.67905,0.18899 0.1774,0.62365 2.5745,2.26494 5.32683,3.64728 5.25618,2.63988 7.39076,5.3857 7.39076,9.50714 0,1.83899 -1.34826,2.63223 -2.50608,1.47442 z m -26.82947,-25.24246 c 1.92331,-1.92334 2.22168,-2.69391 1.82944,-4.72469 -1.39491,-7.22199 -9.53556,-6.27891 -9.53556,1.10468 0,5.87198 3.71091,7.61522 7.70612,3.62001 z m 37.85614,-10.25538 -0.62233,-3.69946 -2.43724,3.53801 c -1.5857,2.30185 -2.43721,4.445 -2.43721,6.13402 0,2.30335 0.31959,2.71814 2.83483,3.67905 l 2.8348,1.08302 0.22473,-3.51761 c 0.12359,-1.93465 -0.0553,-5.18234 -0.39758,-7.21703 z m -11.31004,1.49542 c 1.50455,-2.49092 2.04729,-4.28723 1.88436,-6.23663 -0.22564,-2.69959 -0.2686,-2.65432 -3.06366,3.2271 -3.2294,6.79532 -3.14622,6.50812 -1.88439,6.50812 0.52276,0 1.9014,-1.57438 3.06369,-3.49859 z"
             style="opacity:1;fill:#c62828;fill-opacity:1;stroke:none;stroke-width:2.85714293;stroke-miterlimit:4;stroke-dasharray:none;stroke-opacity:1" />
        </g>
        <text
           xml:space="preserve"
           style="font-style:normal;font-variant:normal;font-weight:normal;font-stretch:normal;font-size:21.23001862px;line-height:1.25;font-family:'URW Gothic L';-inkscape-font-specification:'URW Gothic L';letter-spacing:0px;word-spacing:0px;fill:#c62828;fill-opacity:1;stroke:none;stroke-width:1.76916814"
           x="-484.18439"
           y="739.86603"
           id="text4510"><tspan
             sodipodi:role="line"
             id="tspan4508"
             x="-484.18439"
             y="759.58704"
             style="font-style:normal;font-variant:normal;font-weight:normal;font-stretch:normal;font-family:'URW Gothic L';-inkscape-font-specification:'URW Gothic L';fill:#c62828;fill-opacity:1;stroke-width:1.76916814" /><tspan
             sodipodi:role="line"
             x="-484.18439"
             y="786.12457"
             style="font-style:normal;font-variant:normal;font-weight:normal;font-stretch:normal;font-family:'URW Gothic L';-inkscape-font-specification:'URW Gothic L';fill:#c62828;fill-opacity:1;stroke-width:1.76916814"
             id="tspan4512">PEST CONTROL SERVICES</tspan></text>
        <flowRoot
           xml:space="preserve"
           id="flowRoot4514"
           style="font-style:normal;font-variant:normal;font-weight:normal;font-stretch:normal;font-size:12px;line-height:1.25;font-family:UnYetgul;-inkscape-font-specification:UnYetgul;letter-spacing:0px;word-spacing:0px;fill:#424242;fill-opacity:1;stroke:none"
           transform="matrix(3.6241997,0,0,5.082024,-353.58082,-13041.72)"><flowRegion
             id="flowRegion4516"
             style="font-style:normal;font-variant:normal;font-weight:normal;font-stretch:normal;font-family:UnYetgul;-inkscape-font-specification:UnYetgul;fill:#424242;fill-opacity:1"><rect
               id="rect4518"
               width="1311.4286"
               height="254.28572"
               x="-20"
               y="2705.3767"
               style="font-style:normal;font-variant:normal;font-weight:normal;font-stretch:normal;font-family:UnYetgul;-inkscape-font-specification:UnYetgul;fill:#424242;fill-opacity:1" /></flowRegion><flowPara
             id="flowPara4520">IMPRESS </flowPara></flowRoot>      </g>
      <circle
         r="30.468725"
         cy="799.46667"
         cx="-362.68472"
         id="path4565"
         style="opacity:1;fill:#000000;fill-opacity:0;stroke:none;stroke-width:1;stroke-miterlimit:4;stroke-dasharray:none;stroke-opacity:1" />
    </g>
    <rect
       ry="13.697716"
       y="524.06134"
       x="106.8715"
       height="409.01205"
       width="439.38751"
       id="rect4652"
       style="opacity:1;fill:#ffffff;fill-opacity:1;stroke:none;stroke-width:0.47206211;stroke-miterlimit:4;stroke-dasharray:none;stroke-opacity:1"
       inkscape:export-xdpi="96"
       inkscape:export-ydpi="96" />
    <g
       id="g4665"
       transform="matrix(1.733983,0,0,1.733983,458.19158,-581.78335)">
      <rect
         ry="69.809135"
         y="685.87921"
         x="-145.71895"
         height="139.61827"
         width="139.61827"
         id="rect4595"
         style="opacity:1;fill:#ffffff;fill-opacity:1;stroke:#424242;stroke-width:2.27125001;stroke-miterlimit:4;stroke-dasharray:none;stroke-opacity:1" />
      <g
         transform="matrix(5.1836943,0,0,5.1836943,1840.1905,-3320.7481)"
         id="g4618">
        <g
           id="g4603"
           transform="matrix(1.0903878,0,0,1.0903878,35.386447,-73.682589)">
          <text
             transform="scale(1.0018943,0.99810928)"
             id="text4589"
             y="795.68103"
             x="-378.53073"
             style="font-style:normal;font-variant:normal;font-weight:normal;font-stretch:normal;font-size:19.66066551px;line-height:1.25;font-family:Lato;-inkscape-font-specification:Lato;letter-spacing:0px;word-spacing:0px;fill:#424242;fill-opacity:1;stroke:none;stroke-width:1.63838851"
             xml:space="preserve"><tspan
               style="fill:#424242;fill-opacity:1;stroke-width:1.63838851"
               y="795.68103"
               x="-378.53073"
               id="tspan4587"
               sodipodi:role="line">m</tspan></text>
          <text
             transform="scale(1.0012935,0.99870818)"
             xml:space="preserve"
             style="font-style:normal;font-variant:normal;font-weight:normal;font-stretch:normal;font-size:14.43939114px;line-height:1.25;font-family:Lato;-inkscape-font-specification:Lato;letter-spacing:0px;word-spacing:0px;fill:#c62828;fill-opacity:1;stroke:none;stroke-width:1.20328236"
             x="-378.2092"
             y="792.69885"
             id="text4593"><tspan
               sodipodi:role="line"
               id="tspan4591"
               x="-378.2092"
               y="792.69885"
               style="fill:#c62828;fill-opacity:1;stroke-width:1.20328236">p</tspan></text>
          <text
             transform="scale(0.99633043,1.0036831)"
             id="text4585"
             y="791.26508"
             x="-381.23843"
             style="font-style:normal;font-variant:normal;font-weight:normal;font-stretch:normal;font-size:19.46556473px;line-height:1.25;font-family:Lato;-inkscape-font-specification:Lato;letter-spacing:0px;word-spacing:0px;fill:#424242;fill-opacity:1;stroke:none;stroke-width:1.62213027"
             xml:space="preserve"><tspan
               style="fill:#424242;fill-opacity:1;stroke-width:1.62213027"
               y="791.26508"
               x="-381.23843"
               id="tspan4583"
               sodipodi:role="line">i</tspan></text>
        </g>
        <text
           xml:space="preserve"
           style="font-style:normal;font-variant:normal;font-weight:normal;font-stretch:normal;font-size:2.71459913px;line-height:1.25;font-family:'Nexa Bold';-inkscape-font-specification:'Nexa Bold, ';letter-spacing:0px;word-spacing:0px;fill:#c62828;fill-opacity:1;stroke:none;stroke-width:0.22621657"
           x="-377.35788"
           y="794.94708"
           id="text4607"><tspan
             sodipodi:role="line"
             id="tspan4605"
             x="-377.35788"
             y="794.94708"
             style="font-style:normal;font-variant:normal;font-weight:normal;font-stretch:normal;font-family:'Nexa Bold';-inkscape-font-specification:'Nexa Bold, ';fill:#c62828;fill-opacity:1;stroke-width:0.22621657">Pest Control</tspan></text>
      </g>
    </g>
  </g>
</svg>
